<svg width="548" height="38" viewBox="0 0 548 38" fill="none" xmlns="http://www.w3.org/2000/svg">
<circle cx="8.44961" cy="19" r="8.44961" fill="white"/>
<path d="M546.768 20.7678C547.744 19.7915 547.744 18.2085 546.768 17.2322L530.858 1.32233C529.882 0.34602 528.299 0.34602 527.322 1.32233C526.346 2.29864 526.346 3.88155 527.322 4.85786L541.465 19L527.322 33.1421C526.346 34.1184 526.346 35.7014 527.322 36.6777C528.299 37.654 529.882 37.654 530.858 36.6777L546.768 20.7678ZM8.44962 21.5H545V16.5H8.44962V21.5Z" fill="white"/>
<line x1="79.6589" y1="8.43798" x2="79.6589" y2="29.562" stroke="white" stroke-width="3"/>
<line x1="284.562" y1="8.43798" x2="284.562" y2="29.562" stroke="white" stroke-width="3"/>
<line x1="492.634" y1="8.43798" x2="492.634" y2="29.562" stroke="white" stroke-width="3"/>
</svg>
